<mxfile host="app.diagrams.net" modified="2022-03-14T02:48:14.395Z" agent="5.0 (Windows NT 10.0; Win64; x64) AppleWebKit/537.36 (KHTML, like Gecko) Chrome/99.0.4844.51 Safari/537.36" etag="7jjRhPmS3uQAQYPlRe-5" version="17.1.2" type="github" pages="2">
  <diagram id="8DMG3rJb3IK7WWWzkiAc" name="Page-1">
    <mxGraphModel dx="865" dy="483" grid="1" gridSize="10" guides="1" tooltips="1" connect="1" arrows="1" fold="1" page="1" pageScale="1" pageWidth="827" pageHeight="1169" math="0" shadow="0">
      <root>
        <mxCell id="0" />
        <mxCell id="1" parent="0" />
        <mxCell id="y-0biF2p44MU8GDN5-Ol-3" value="" style="edgeStyle=orthogonalEdgeStyle;rounded=0;orthogonalLoop=1;jettySize=auto;html=1;" parent="1" source="y-0biF2p44MU8GDN5-Ol-1" target="y-0biF2p44MU8GDN5-Ol-2" edge="1">
          <mxGeometry relative="1" as="geometry" />
        </mxCell>
        <mxCell id="y-0biF2p44MU8GDN5-Ol-1" value="&lt;b&gt;Webview#&lt;br&gt;OnTouchEvent&lt;/b&gt;" style="rounded=0;whiteSpace=wrap;html=1;fillColor=#e1d5e7;strokeColor=#9673a6;sketch=1;" parent="1" vertex="1">
          <mxGeometry x="270" y="50" width="120" height="60" as="geometry" />
        </mxCell>
        <mxCell id="y-0biF2p44MU8GDN5-Ol-7" style="edgeStyle=orthogonalEdgeStyle;rounded=0;orthogonalLoop=1;jettySize=auto;html=1;exitX=0;exitY=0.5;exitDx=0;exitDy=0;entryX=1;entryY=0.25;entryDx=0;entryDy=0;fontColor=#000000;sketch=1;" parent="1" source="y-0biF2p44MU8GDN5-Ol-2" target="y-0biF2p44MU8GDN5-Ol-4" edge="1">
          <mxGeometry relative="1" as="geometry" />
        </mxCell>
        <mxCell id="y-0biF2p44MU8GDN5-Ol-2" value="&lt;b&gt;RenderWigetHost&lt;br&gt;View&lt;/b&gt;" style="whiteSpace=wrap;html=1;fillColor=#e1d5e7;strokeColor=#9673a6;rounded=0;sketch=1;" parent="1" vertex="1">
          <mxGeometry x="270" y="140" width="120" height="40" as="geometry" />
        </mxCell>
        <mxCell id="y-0biF2p44MU8GDN5-Ol-9" style="edgeStyle=orthogonalEdgeStyle;rounded=0;sketch=1;orthogonalLoop=1;jettySize=auto;html=1;exitX=0.5;exitY=1;exitDx=0;exitDy=0;entryX=0.5;entryY=0;entryDx=0;entryDy=0;fontColor=#000000;" parent="1" source="y-0biF2p44MU8GDN5-Ol-4" target="y-0biF2p44MU8GDN5-Ol-5" edge="1">
          <mxGeometry relative="1" as="geometry" />
        </mxCell>
        <mxCell id="y-0biF2p44MU8GDN5-Ol-4" value="Scale/Scroll&lt;br&gt;GestureDetector" style="rounded=0;whiteSpace=wrap;html=1;sketch=1;fontColor=#000000;strokeColor=default;" parent="1" vertex="1">
          <mxGeometry x="80" y="120" width="110" height="40" as="geometry" />
        </mxCell>
        <mxCell id="y-0biF2p44MU8GDN5-Ol-6" style="edgeStyle=orthogonalEdgeStyle;rounded=0;orthogonalLoop=1;jettySize=auto;html=1;exitX=0.75;exitY=0;exitDx=0;exitDy=0;entryX=0;entryY=0.75;entryDx=0;entryDy=0;fontColor=#000000;sketch=1;" parent="1" source="y-0biF2p44MU8GDN5-Ol-5" target="y-0biF2p44MU8GDN5-Ol-2" edge="1">
          <mxGeometry relative="1" as="geometry" />
        </mxCell>
        <mxCell id="y-0biF2p44MU8GDN5-Ol-5" value="GestureListener" style="rounded=0;whiteSpace=wrap;html=1;sketch=1;fontColor=#000000;strokeColor=default;" parent="1" vertex="1">
          <mxGeometry x="80" y="200" width="110" height="40" as="geometry" />
        </mxCell>
        <mxCell id="y-0biF2p44MU8GDN5-Ol-8" value="OnScroll&lt;br&gt;OnScale" style="text;html=1;strokeColor=none;fillColor=none;align=center;verticalAlign=middle;whiteSpace=wrap;rounded=0;sketch=1;fontColor=#000000;" parent="1" vertex="1">
          <mxGeometry x="70" y="165" width="60" height="30" as="geometry" />
        </mxCell>
        <mxCell id="y-0biF2p44MU8GDN5-Ol-10" value="1." style="text;html=1;align=center;verticalAlign=middle;resizable=0;points=[];autosize=1;strokeColor=none;fillColor=none;fontColor=#000000;" parent="1" vertex="1">
          <mxGeometry x="230" y="140" width="30" height="20" as="geometry" />
        </mxCell>
        <mxCell id="y-0biF2p44MU8GDN5-Ol-11" value="2." style="text;html=1;align=center;verticalAlign=middle;resizable=0;points=[];autosize=1;strokeColor=none;fillColor=none;fontColor=#000000;" parent="1" vertex="1">
          <mxGeometry x="50" y="170" width="30" height="20" as="geometry" />
        </mxCell>
        <mxCell id="y-0biF2p44MU8GDN5-Ol-13" value="&lt;font style=&quot;font-size: 10px&quot;&gt;&lt;span style=&quot;font-size: 12px&quot;&gt;3.&amp;nbsp;&lt;/span&gt;OnGestureEvent&lt;/font&gt;" style="text;html=1;align=center;verticalAlign=middle;resizable=0;points=[];autosize=1;strokeColor=none;fillColor=none;fontColor=#000000;" parent="1" vertex="1">
          <mxGeometry x="160" y="175" width="120" height="20" as="geometry" />
        </mxCell>
        <mxCell id="4VvgWbDHsXbsSs0nr0gg-1" value="InputRouter" style="rounded=0;whiteSpace=wrap;html=1;sketch=1;fontColor=#000000;strokeColor=default;" vertex="1" parent="1">
          <mxGeometry x="240" y="260" width="110" height="40" as="geometry" />
        </mxCell>
        <mxCell id="4VvgWbDHsXbsSs0nr0gg-2" value="TouchAction&lt;br&gt;Filter" style="rounded=0;whiteSpace=wrap;html=1;sketch=1;fontColor=#000000;strokeColor=default;" vertex="1" parent="1">
          <mxGeometry x="160" y="340" width="110" height="40" as="geometry" />
        </mxCell>
        <mxCell id="4VvgWbDHsXbsSs0nr0gg-5" style="edgeStyle=orthogonalEdgeStyle;rounded=0;orthogonalLoop=1;jettySize=auto;html=1;exitX=0.5;exitY=1;exitDx=0;exitDy=0;entryX=0.5;entryY=0;entryDx=0;entryDy=0;" edge="1" parent="1" source="4VvgWbDHsXbsSs0nr0gg-3" target="4VvgWbDHsXbsSs0nr0gg-4">
          <mxGeometry relative="1" as="geometry" />
        </mxCell>
        <mxCell id="4VvgWbDHsXbsSs0nr0gg-3" value="WidgetInput&lt;br&gt;Helper" style="rounded=0;whiteSpace=wrap;html=1;sketch=1;strokeColor=#d6b656;fillColor=#fff2cc;" vertex="1" parent="1">
          <mxGeometry x="490" y="260" width="110" height="40" as="geometry" />
        </mxCell>
        <mxCell id="KpQj9bz4oVX4xFhLFmnH-1" style="edgeStyle=orthogonalEdgeStyle;rounded=0;orthogonalLoop=1;jettySize=auto;html=1;exitX=0.5;exitY=1;exitDx=0;exitDy=0;entryX=0.5;entryY=0;entryDx=0;entryDy=0;" edge="1" parent="1" source="4VvgWbDHsXbsSs0nr0gg-4" target="KpQj9bz4oVX4xFhLFmnH-2">
          <mxGeometry relative="1" as="geometry">
            <mxPoint x="545" y="290" as="targetPoint" />
          </mxGeometry>
        </mxCell>
        <mxCell id="4VvgWbDHsXbsSs0nr0gg-4" value="InputHandler&lt;br&gt;Proxy" style="rounded=0;whiteSpace=wrap;html=1;sketch=1;fontColor=#000000;strokeColor=default;" vertex="1" parent="1">
          <mxGeometry x="490" y="325" width="110" height="40" as="geometry" />
        </mxCell>
        <mxCell id="4VvgWbDHsXbsSs0nr0gg-6" value="TouchAction&lt;br&gt;Manager" style="rounded=0;whiteSpace=wrap;html=1;sketch=1;fontColor=#000000;strokeColor=default;" vertex="1" parent="1">
          <mxGeometry x="490" y="60" width="110" height="40" as="geometry" />
        </mxCell>
        <mxCell id="4VvgWbDHsXbsSs0nr0gg-7" value="" style="endArrow=none;html=1;rounded=0;" edge="1" parent="1">
          <mxGeometry width="50" height="50" relative="1" as="geometry">
            <mxPoint x="420" y="250" as="sourcePoint" />
            <mxPoint x="690" y="250" as="targetPoint" />
          </mxGeometry>
        </mxCell>
        <mxCell id="4VvgWbDHsXbsSs0nr0gg-8" value="" style="endArrow=none;html=1;rounded=0;" edge="1" parent="1">
          <mxGeometry width="50" height="50" relative="1" as="geometry">
            <mxPoint x="420" y="50" as="sourcePoint" />
            <mxPoint x="420" y="450" as="targetPoint" />
          </mxGeometry>
        </mxCell>
        <mxCell id="4VvgWbDHsXbsSs0nr0gg-10" value="&lt;b&gt;Mojo&lt;/b&gt;" style="ellipse;whiteSpace=wrap;html=1;sketch=1;fillColor=#f8cecc;strokeColor=#b85450;" vertex="1" parent="1">
          <mxGeometry x="370" y="230" width="100" height="40" as="geometry" />
        </mxCell>
        <mxCell id="KpQj9bz4oVX4xFhLFmnH-2" value="InputHandler" style="rounded=0;whiteSpace=wrap;html=1;sketch=1;fontColor=#000000;strokeColor=default;" vertex="1" parent="1">
          <mxGeometry x="490" y="390" width="110" height="40" as="geometry" />
        </mxCell>
        <mxCell id="KpQj9bz4oVX4xFhLFmnH-5" value="InputHander&lt;br&gt;ProxyClient" style="text;html=1;align=center;verticalAlign=middle;resizable=0;points=[];autosize=1;strokeColor=none;fillColor=none;" vertex="1" parent="1">
          <mxGeometry x="630" y="390" width="80" height="30" as="geometry" />
        </mxCell>
      </root>
    </mxGraphModel>
  </diagram>
  <diagram id="F76bqyF4mZbUpjOtN3T7" name="Page-2">
    <mxGraphModel dx="1038" dy="579" grid="1" gridSize="10" guides="1" tooltips="1" connect="1" arrows="1" fold="1" page="1" pageScale="1" pageWidth="850" pageHeight="1100" math="0" shadow="0">
      <root>
        <mxCell id="4SIn7ymjS7Svke77ARC5-0" />
        <mxCell id="4SIn7ymjS7Svke77ARC5-1" parent="4SIn7ymjS7Svke77ARC5-0" />
        <mxCell id="4SIn7ymjS7Svke77ARC5-2" value="" style="edgeStyle=orthogonalEdgeStyle;rounded=0;orthogonalLoop=1;jettySize=auto;html=1;" edge="1" parent="4SIn7ymjS7Svke77ARC5-1" source="4SIn7ymjS7Svke77ARC5-3" target="4SIn7ymjS7Svke77ARC5-5">
          <mxGeometry relative="1" as="geometry" />
        </mxCell>
        <mxCell id="4SIn7ymjS7Svke77ARC5-3" value="Manager" style="rounded=0;whiteSpace=wrap;html=1;" vertex="1" parent="4SIn7ymjS7Svke77ARC5-1">
          <mxGeometry x="200" y="340" width="120" height="60" as="geometry" />
        </mxCell>
        <mxCell id="4SIn7ymjS7Svke77ARC5-4" value="" style="edgeStyle=orthogonalEdgeStyle;rounded=0;orthogonalLoop=1;jettySize=auto;html=1;" edge="1" parent="4SIn7ymjS7Svke77ARC5-1" source="4SIn7ymjS7Svke77ARC5-5" target="4SIn7ymjS7Svke77ARC5-8">
          <mxGeometry relative="1" as="geometry" />
        </mxCell>
        <mxCell id="4SIn7ymjS7Svke77ARC5-5" value="InputHandler&lt;br /&gt;Proxy" style="rounded=0;whiteSpace=wrap;html=1;strokeColor=#9AC7BF;fillColor=#9AC7BF;" vertex="1" parent="4SIn7ymjS7Svke77ARC5-1">
          <mxGeometry x="200" y="460" width="120" height="60" as="geometry" />
        </mxCell>
        <mxCell id="4SIn7ymjS7Svke77ARC5-6" value="" style="edgeStyle=orthogonalEdgeStyle;rounded=0;orthogonalLoop=1;jettySize=auto;html=1;" edge="1" parent="4SIn7ymjS7Svke77ARC5-1" source="4SIn7ymjS7Svke77ARC5-8" target="4SIn7ymjS7Svke77ARC5-9">
          <mxGeometry relative="1" as="geometry" />
        </mxCell>
        <mxCell id="4SIn7ymjS7Svke77ARC5-7" style="edgeStyle=orthogonalEdgeStyle;rounded=0;orthogonalLoop=1;jettySize=auto;html=1;exitX=0.5;exitY=1;exitDx=0;exitDy=0;entryX=0.5;entryY=1;entryDx=0;entryDy=0;" edge="1" parent="4SIn7ymjS7Svke77ARC5-1" source="4SIn7ymjS7Svke77ARC5-8" target="4SIn7ymjS7Svke77ARC5-5">
          <mxGeometry relative="1" as="geometry" />
        </mxCell>
        <mxCell id="4SIn7ymjS7Svke77ARC5-8" value="cc::&lt;br /&gt;threaded&lt;br /&gt;InputHandler" style="rounded=0;whiteSpace=wrap;html=1;" vertex="1" parent="4SIn7ymjS7Svke77ARC5-1">
          <mxGeometry x="400" y="460" width="120" height="60" as="geometry" />
        </mxCell>
        <mxCell id="4SIn7ymjS7Svke77ARC5-9" value="LayerTreeFrameHost" style="rounded=0;whiteSpace=wrap;html=1;" vertex="1" parent="4SIn7ymjS7Svke77ARC5-1">
          <mxGeometry x="630" y="460" width="120" height="60" as="geometry" />
        </mxCell>
        <mxCell id="4SIn7ymjS7Svke77ARC5-10" value="hanldler_" style="text;html=1;align=center;verticalAlign=middle;resizable=0;points=[];autosize=1;" vertex="1" parent="4SIn7ymjS7Svke77ARC5-1">
          <mxGeometry x="340" y="490" width="40" height="20" as="geometry" />
        </mxCell>
        <mxCell id="4SIn7ymjS7Svke77ARC5-11" value="client_" style="text;html=1;align=center;verticalAlign=middle;resizable=0;points=[];autosize=1;" vertex="1" parent="4SIn7ymjS7Svke77ARC5-1">
          <mxGeometry x="260" y="420" width="40" height="20" as="geometry" />
        </mxCell>
        <mxCell id="4SIn7ymjS7Svke77ARC5-12" value="" style="edgeStyle=orthogonalEdgeStyle;rounded=0;orthogonalLoop=1;jettySize=auto;html=1;" edge="1" parent="4SIn7ymjS7Svke77ARC5-1" source="4SIn7ymjS7Svke77ARC5-14" target="4SIn7ymjS7Svke77ARC5-3">
          <mxGeometry relative="1" as="geometry" />
        </mxCell>
        <mxCell id="4SIn7ymjS7Svke77ARC5-13" style="edgeStyle=orthogonalEdgeStyle;rounded=0;orthogonalLoop=1;jettySize=auto;html=1;exitX=0.5;exitY=0;exitDx=0;exitDy=0;entryX=0.5;entryY=1;entryDx=0;entryDy=0;" edge="1" parent="4SIn7ymjS7Svke77ARC5-1" source="4SIn7ymjS7Svke77ARC5-14" target="4SIn7ymjS7Svke77ARC5-18">
          <mxGeometry relative="1" as="geometry" />
        </mxCell>
        <mxCell id="4SIn7ymjS7Svke77ARC5-14" value="&lt;div style=&quot;background-color: rgb(255, 255, 255); font-family: &amp;quot;Droid Sans Mono&amp;quot;, monospace, monospace, &amp;quot;Droid Sans Fallback&amp;quot;; font-size: 14px; line-height: 19px;&quot;&gt;WidgetInput&lt;/div&gt;&lt;div style=&quot;background-color: rgb(255, 255, 255); font-family: &amp;quot;Droid Sans Mono&amp;quot;, monospace, monospace, &amp;quot;Droid Sans Fallback&amp;quot;; font-size: 14px; line-height: 19px;&quot;&gt;HandlerImpl&lt;/div&gt;" style="rounded=0;whiteSpace=wrap;html=1;" vertex="1" parent="4SIn7ymjS7Svke77ARC5-1">
          <mxGeometry x="200" y="240" width="120" height="60" as="geometry" />
        </mxCell>
        <mxCell id="4SIn7ymjS7Svke77ARC5-15" value="" style="endArrow=none;html=1;" edge="1" parent="4SIn7ymjS7Svke77ARC5-1" source="4SIn7ymjS7Svke77ARC5-18">
          <mxGeometry width="50" height="50" relative="1" as="geometry">
            <mxPoint x="130" y="210" as="sourcePoint" />
            <mxPoint x="430" y="210" as="targetPoint" />
          </mxGeometry>
        </mxCell>
        <mxCell id="4SIn7ymjS7Svke77ARC5-16" value="" style="edgeStyle=orthogonalEdgeStyle;rounded=0;orthogonalLoop=1;jettySize=auto;html=1;" edge="1" parent="4SIn7ymjS7Svke77ARC5-1" source="4SIn7ymjS7Svke77ARC5-17" target="4SIn7ymjS7Svke77ARC5-18">
          <mxGeometry relative="1" as="geometry" />
        </mxCell>
        <mxCell id="4SIn7ymjS7Svke77ARC5-17" value="RenderWidget&lt;br /&gt;Host" style="rounded=0;whiteSpace=wrap;html=1;" vertex="1" parent="4SIn7ymjS7Svke77ARC5-1">
          <mxGeometry x="200" y="90" width="120" height="60" as="geometry" />
        </mxCell>
        <mxCell id="4SIn7ymjS7Svke77ARC5-18" value="&lt;div style=&quot;font-family: &amp;quot;Droid Sans Mono&amp;quot;, monospace, monospace, &amp;quot;Droid Sans Fallback&amp;quot;; font-size: 14px; line-height: 19px;&quot;&gt;WidgetInput&lt;/div&gt;&lt;div style=&quot;font-family: &amp;quot;Droid Sans Mono&amp;quot;, monospace, monospace, &amp;quot;Droid Sans Fallback&amp;quot;; font-size: 14px; line-height: 19px;&quot;&gt;Handler&lt;/div&gt;" style="ellipse;whiteSpace=wrap;html=1;" vertex="1" parent="4SIn7ymjS7Svke77ARC5-1">
          <mxGeometry x="210" y="190" width="100" height="30" as="geometry" />
        </mxCell>
        <mxCell id="4SIn7ymjS7Svke77ARC5-19" value="" style="endArrow=none;html=1;" edge="1" parent="4SIn7ymjS7Svke77ARC5-1" target="4SIn7ymjS7Svke77ARC5-18">
          <mxGeometry width="50" height="50" relative="1" as="geometry">
            <mxPoint x="130" y="210" as="sourcePoint" />
            <mxPoint x="430" y="210" as="targetPoint" />
          </mxGeometry>
        </mxCell>
        <mxCell id="4SIn7ymjS7Svke77ARC5-20" value="delegate" style="text;html=1;align=center;verticalAlign=middle;resizable=0;points=[];autosize=1;" vertex="1" parent="4SIn7ymjS7Svke77ARC5-1">
          <mxGeometry x="550" y="470" width="40" height="20" as="geometry" />
        </mxCell>
        <mxCell id="4SIn7ymjS7Svke77ARC5-21" value="client_" style="text;html=1;align=center;verticalAlign=middle;resizable=0;points=[];autosize=1;" vertex="1" parent="4SIn7ymjS7Svke77ARC5-1">
          <mxGeometry x="340" y="540" width="40" height="20" as="geometry" />
        </mxCell>
        <mxCell id="4SIn7ymjS7Svke77ARC5-22" value="&lt;div style=&quot;background-color: rgb(255, 255, 255); font-family: &amp;quot;Droid Sans Mono&amp;quot;, monospace, monospace, &amp;quot;Droid Sans Fallback&amp;quot;; font-size: 14px; line-height: 19px;&quot;&gt;&lt;span style=&quot;color: #267f99;&quot;&gt;InputDelegateForCompositor&lt;/span&gt;&lt;/div&gt;" style="text;html=1;align=center;verticalAlign=middle;resizable=0;points=[];autosize=1;" vertex="1" parent="4SIn7ymjS7Svke77ARC5-1">
          <mxGeometry x="450" y="440" width="40" height="20" as="geometry" />
        </mxCell>
        <mxCell id="4SIn7ymjS7Svke77ARC5-23" value="is a" style="text;html=1;align=center;verticalAlign=middle;resizable=0;points=[];autosize=1;" vertex="1" parent="4SIn7ymjS7Svke77ARC5-1">
          <mxGeometry x="450" y="420" width="40" height="20" as="geometry" />
        </mxCell>
      </root>
    </mxGraphModel>
  </diagram>
</mxfile>
